<svg width="24" height="21" viewBox="0 0 24 21" fill="none" xmlns="http://www.w3.org/2000/svg">
<path d="M7.39411 21H8.2244V18.6407H7.73072C6.31697 18.6407 5.7784 18.0397 5.7784 16.4706V13.4102C5.7784 11.8076 4.74614 10.8506 2.83871 10.6391V10.283C4.74614 10.0827 5.7784 9.1256 5.7784 7.51192V4.52941C5.7784 2.96025 6.30575 2.3593 7.73072 2.3593H8.2244V0H7.39411C4.06171 0 2.64797 1.24642 2.64797 4.15103V6.64388C2.64797 8.29094 1.91865 8.90302 0 8.91415V12.0079C1.92987 12.0302 2.64797 12.6423 2.64797 14.2782V16.7933C2.64797 19.7313 4.06171 21 7.39411 21Z" fill="black"/>
<path d="M16.6059 21C19.9271 21 21.3408 19.7313 21.3408 16.7933V14.2782C21.3408 12.6423 22.0701 12.0302 24 12.0079V8.91415C22.0701 8.90302 21.3408 8.29094 21.3408 6.64388V4.15103C21.3408 1.24642 19.9383 0 16.6059 0H15.7756V2.3593H16.2693C17.683 2.3593 18.2216 2.96025 18.2216 4.52941V7.51192C18.2216 9.1256 19.2539 10.0827 21.1613 10.283V10.6391C19.2539 10.8506 18.2216 11.8076 18.2216 13.4102V16.4706C18.2216 18.0397 17.683 18.6407 16.2693 18.6407H15.7756V21H16.6059Z" fill="black"/>
</svg>
