<svg width="24" height="25" viewBox="0 0 24 25" fill="none" xmlns="http://www.w3.org/2000/svg">
<g clip-path="url(#clip0)">
<path d="M15.8522 9.481H11.2642V0.5H15.8522C18.3282 0.5 20.3422 2.514 20.3422 4.99C20.3422 7.466 18.3282 9.481 15.8522 9.481ZM12.7352 8.01H15.8522C17.5172 8.01 18.8712 6.655 18.8712 4.991C18.8712 3.327 17.5162 1.972 15.8522 1.972H12.7352V8.01ZM12.7352 9.481H8.14823C5.67223 9.481 3.65823 7.467 3.65823 4.991C3.65823 2.515 5.67223 0.5 8.14823 0.5H12.7362V9.481H12.7352ZM8.14823 1.971C6.48323 1.971 5.12923 3.326 5.12923 4.99C5.12923 6.654 6.48323 8.01 8.14823 8.01H11.2652V1.971H8.14823ZM12.7352 16.99H8.14823C5.67223 16.99 3.65823 14.976 3.65823 12.5C3.65823 10.024 5.67223 8.01 8.14823 8.01H12.7362V16.99H12.7352ZM8.14823 9.481C6.48323 9.481 5.12923 10.836 5.12923 12.5C5.12923 14.164 6.48423 15.519 8.14823 15.519H11.2652V9.481H8.14823ZM8.17223 24.5C5.68323 24.5 3.65723 22.486 3.65723 20.01C3.65723 17.534 5.67123 15.52 8.14723 15.52H12.7352V19.961C12.7352 22.464 10.6882 24.5 8.17223 24.5ZM8.14823 16.99C7.34786 16.9911 6.58058 17.3095 6.01464 17.8754C5.4487 18.4414 5.13029 19.2086 5.12923 20.009C5.12923 21.674 6.49423 23.028 8.17323 23.028C9.87823 23.028 11.2662 21.652 11.2662 19.96V16.99H8.14823ZM15.8522 16.99H15.7542C13.2782 16.99 11.2642 14.976 11.2642 12.5C11.2642 10.024 13.2782 8.01 15.7542 8.01H15.8522C18.3282 8.01 20.3422 10.024 20.3422 12.5C20.3422 14.976 18.3282 16.99 15.8522 16.99ZM15.7552 9.481C14.0902 9.481 12.7362 10.836 12.7362 12.5C12.7362 14.164 14.0912 15.519 15.7552 15.519H15.8532C17.5182 15.519 18.8722 14.164 18.8722 12.5C18.8722 10.836 17.5172 9.481 15.8532 9.481H15.7552Z" fill="black"/>
</g>
<defs>
<clipPath id="clip0">
<rect width="24" height="24" fill="white" transform="translate(0 0.5)"/>
</clipPath>
</defs>
</svg>
