<svg width="24" height="25" viewBox="0 0 24 25" fill="none" xmlns="http://www.w3.org/2000/svg">
<path d="M14.23 12.504C14.23 13.0968 13.9946 13.6654 13.5754 14.0847C13.1563 14.504 12.5879 14.7397 11.995 14.74C11.402 14.74 10.8332 14.5044 10.4139 14.0851C9.99458 13.6657 9.759 13.097 9.759 12.504C9.759 11.9111 9.99444 11.3425 10.4136 10.9232C10.8327 10.5039 11.4011 10.2682 11.994 10.268C12.587 10.268 13.1558 10.5035 13.5751 10.9229C13.9944 11.3422 14.23 11.9109 14.23 12.504ZM16.878 1.81396C15.532 1.81396 13.771 2.77397 11.99 4.43597C10.21 2.78297 8.448 1.83396 7.103 1.83396C6.693 1.83396 6.32 1.92696 5.997 2.11196C4.622 2.90496 4.314 5.37596 5.024 8.47696C1.98 9.41697 0 10.92 0 12.504C0 14.094 1.99 15.601 5.043 16.534C4.339 19.647 4.653 22.122 6.031 22.914C6.351 23.101 6.721 23.189 7.133 23.189C8.478 23.189 10.24 22.229 12.021 20.565C13.801 22.219 15.563 23.168 16.908 23.168C17.318 23.168 17.691 23.078 18.014 22.893C19.388 22.101 19.697 19.63 18.987 16.528C22.02 15.596 24 14.09 24 12.504C24 10.914 22.01 9.40696 18.957 8.47196C19.661 5.36196 19.347 2.88496 17.969 2.09196C17.651 1.90796 17.281 1.81496 16.877 1.81396H16.878ZM16.873 2.90396V2.90996C17.098 2.90996 17.279 2.95396 17.431 3.03696C18.097 3.41896 18.386 4.87196 18.161 6.74096C18.107 7.20096 18.019 7.68597 17.911 8.18096C16.951 7.94496 15.905 7.76396 14.804 7.64696C14.144 6.74196 13.459 5.91996 12.769 5.19996C14.361 3.71996 15.856 2.90796 16.874 2.90496L16.873 2.90396ZM7.103 2.92396C8.115 2.92396 9.617 3.73196 11.213 5.20396C10.527 5.92396 9.843 6.74096 9.193 7.64596C8.086 7.76296 7.039 7.94396 6.08 8.18396C5.968 7.69396 5.885 7.21996 5.826 6.76396C5.596 4.89596 5.88 3.44396 6.54 3.05696C6.73 2.96696 6.94 2.92996 7.103 2.92496V2.92396ZM11.985 5.97396C12.44 6.44196 12.895 6.96596 13.345 7.53796C12.905 7.51796 12.455 7.50396 12 7.50396C11.54 7.50396 11.085 7.51396 10.64 7.53796C11.08 6.96596 11.535 6.44196 11.985 5.97296V5.97396ZM12 8.59997C12.74 8.59997 13.477 8.63396 14.202 8.69296C14.608 9.27496 15.004 9.89597 15.385 10.553C15.757 11.193 16.095 11.843 16.403 12.499C16.095 13.154 15.757 13.809 15.39 14.449C15.01 15.109 14.617 15.737 14.21 16.319C13.482 16.382 12.744 16.417 12 16.417C11.26 16.417 10.523 16.382 9.798 16.324C9.392 15.742 8.996 15.12 8.615 14.464C8.243 13.824 7.905 13.174 7.597 12.518C7.9 11.861 8.243 11.205 8.61 10.564C8.99 9.90396 9.383 9.27796 9.79 8.69596C10.518 8.63196 11.256 8.59796 12 8.59796V8.59997ZM8.365 8.85396C8.125 9.23096 7.885 9.61696 7.661 10.014C7.436 10.404 7.226 10.796 7.026 11.188C6.761 10.532 6.536 9.87796 6.35 9.24096C6.99 9.09096 7.665 8.95796 8.365 8.85496V8.85396ZM15.625 8.85396C16.32 8.95696 16.99 9.08396 17.631 9.24096C17.451 9.87296 17.226 10.523 16.971 11.174C16.771 10.784 16.561 10.391 16.331 9.99996C16.106 9.60796 15.866 9.22597 15.626 8.85396H15.625ZM18.688 9.52896C19.172 9.67897 19.632 9.84597 20.063 10.027C21.795 10.767 22.915 11.735 22.915 12.503C22.91 13.271 21.79 14.243 20.058 14.978C19.638 15.158 19.178 15.32 18.703 15.471C18.423 14.513 18.057 13.515 17.603 12.491C18.053 11.474 18.413 10.481 18.688 9.52697V9.52896ZM5.293 9.53296C5.571 10.493 5.938 11.49 6.393 12.513C5.943 13.53 5.581 14.523 5.307 15.477C4.823 15.327 4.363 15.159 3.937 14.977C2.205 14.24 1.085 13.271 1.085 12.503C1.085 11.735 2.205 10.761 3.937 10.027C4.357 9.84696 4.817 9.68496 5.293 9.53296ZM16.971 13.813C17.236 14.47 17.461 15.125 17.647 15.761C17.007 15.918 16.331 16.051 15.631 16.151C15.871 15.776 16.111 15.389 16.336 14.993C16.561 14.603 16.771 14.205 16.972 13.813H16.971ZM7.026 13.833C7.226 14.225 7.436 14.616 7.666 15.008C7.896 15.398 8.131 15.78 8.371 16.151C7.676 16.049 7.006 15.921 6.365 15.765C6.545 15.135 6.771 14.483 7.025 13.832L7.026 13.833ZM17.92 16.82C18.032 17.313 18.12 17.788 18.174 18.243C18.404 20.111 18.12 21.563 17.46 21.951C17.313 22.041 17.122 22.079 16.897 22.079C15.885 22.079 14.383 21.272 12.787 19.799C13.473 19.079 14.157 18.263 14.807 17.359C15.914 17.241 16.961 17.059 17.92 16.819V16.82ZM6.09 16.83C7.05 17.064 8.096 17.245 9.197 17.362C9.857 18.267 10.542 19.089 11.232 19.808C9.637 21.291 8.14 22.103 7.122 22.103C6.902 22.098 6.716 22.053 6.569 21.971C5.903 21.591 5.614 20.137 5.839 18.268C5.893 17.808 5.981 17.324 6.089 16.83H6.09ZM10.65 17.47C11.09 17.49 11.54 17.504 11.995 17.504C12.455 17.504 12.91 17.494 13.355 17.47C12.915 18.042 12.46 18.565 12.01 19.035C11.555 18.565 11.1 18.042 10.65 17.47Z" fill="black"/>
</svg>
