<svg width="24" height="24" viewBox="0 0 24 24" fill="none" xmlns="http://www.w3.org/2000/svg">
<path fill-rule="evenodd" clip-rule="evenodd" d="M12.4545 3.72727C12.4545 3.32561 12.1289 3 11.7273 3C11.3256 3 11 3.32561 11 3.72727V4.45455C11 4.85621 11.3256 5.18182 11.7273 5.18182C12.1289 5.18182 12.4545 4.85621 12.4545 4.45455V3.72727ZM5.54028 5.54028C5.8243 5.25627 6.28479 5.25627 6.5688 5.54028L7.07789 6.04938C7.36191 6.33339 7.36191 6.79388 7.07789 7.07789C6.79388 7.36191 6.33339 7.36191 6.04938 7.07789L5.54028 6.5688C5.25627 6.28479 5.25627 5.8243 5.54028 5.54028ZM3 11.7273C3 11.3256 3.32561 11 3.72727 11H4.45455C4.85621 11 5.18182 11.3256 5.18182 11.7273C5.18182 12.1289 4.85621 12.4545 4.45455 12.4545H3.72727C3.32561 12.4545 3 12.1289 3 11.7273ZM17.9142 5.54028C18.1982 5.8243 18.1982 6.28478 17.9142 6.5688L17.4051 7.07789C17.1211 7.36191 16.6606 7.36191 16.3766 7.07789C16.0926 6.79388 16.0926 6.33339 16.3766 6.04938L16.8857 5.54028C17.1697 5.25627 17.6302 5.25627 17.9142 5.54028ZM19 11C18.5983 11 18.2727 11.3256 18.2727 11.7273C18.2727 12.1289 18.5983 12.4545 19 12.4545H19.7273C20.1289 12.4545 20.4545 12.1289 20.4545 11.7273C20.4545 11.3256 20.1289 11 19.7273 11H19ZM16.3766 16.3766C16.6606 16.0926 17.1211 16.0926 17.4051 16.3766L17.9142 16.8857C18.1982 17.1698 18.1982 17.6302 17.9142 17.9143C17.6302 18.1983 17.1697 18.1983 16.8857 17.9143L16.3766 17.4052C16.0926 17.1212 16.0926 16.6607 16.3766 16.3766ZM12.4545 19C12.4545 18.5983 12.1289 18.2727 11.7273 18.2727C11.3256 18.2727 11 18.5983 11 19V19.7273C11 20.1289 11.3256 20.4546 11.7273 20.4546C12.1289 20.4546 12.4545 20.1289 12.4545 19.7273V19ZM7.07789 16.3766C7.36191 16.6607 7.36191 17.1212 7.07789 17.4052L6.5688 17.9143C6.28478 18.1983 5.8243 18.1983 5.54028 17.9143C5.25627 17.6302 5.25627 17.1698 5.54028 16.8857L6.04938 16.3766C6.33339 16.0926 6.79388 16.0926 7.07789 16.3766ZM16.0909 11.7273C16.0909 14.1372 14.1372 16.0909 11.7273 16.0909C9.31729 16.0909 7.36363 14.1372 7.36363 11.7273C7.36363 9.31729 9.31729 7.36363 11.7273 7.36363C14.1372 7.36363 16.0909 9.31729 16.0909 11.7273Z" fill="black"/>
</svg>
