<svg width="180" height="180" viewBox="0 0 180 180" fill="none" xmlns="http://www.w3.org/2000/svg">
<rect width="180" height="180" rx="52" fill="url(#paint0_radial)"/>
<path d="M78.452 45V46.748C76.7347 46.8093 75.3853 47.2693 74.404 48.128C73.484 48.9253 72.84 50.704 72.472 53.464C72.1653 56.1627 72.012 60.4253 72.012 66.252C72.012 71.772 70.9693 76.096 68.884 79.224C66.86 82.352 64.2227 84.6827 60.972 86.216C57.7213 87.688 54.256 88.7613 50.576 89.436C54.256 90.1107 57.7213 91.2147 60.972 92.748C64.2227 94.2813 66.86 96.612 68.884 99.74C70.9693 102.807 72.012 107.1 72.012 112.62C72.012 117.159 72.104 120.747 72.288 123.384C72.472 126.021 72.7787 127.984 73.208 129.272C73.6987 130.621 74.3733 131.48 75.232 131.848C76.0907 132.277 77.164 132.492 78.452 132.492V134.24C72.8707 134.24 68.3933 133.596 65.02 132.308C61.6467 131.081 59.1933 128.904 57.66 125.776C56.188 122.648 55.452 118.263 55.452 112.62C55.452 106.855 55.2373 102.408 54.808 99.28C54.44 96.0907 53.7653 93.8213 52.784 92.472C51.8027 91.1227 50.3613 90.3867 48.46 90.264H48V88.608H48.46C50.3613 88.4853 51.8027 87.78 52.784 86.492C53.7653 85.1427 54.44 82.8733 54.808 79.684C55.2373 76.4947 55.452 72.0173 55.452 66.252C55.452 60.8547 56.188 56.6227 57.66 53.556C59.1933 50.428 61.6467 48.22 65.02 46.932C68.3933 45.644 72.8707 45 78.452 45Z" fill="white"/>
<path d="M100.918 45V46.748C102.635 46.8093 103.954 47.2693 104.874 48.128C105.855 48.9253 106.499 50.704 106.806 53.464C107.174 56.1627 107.358 60.4253 107.358 66.252C107.358 71.772 108.37 76.096 110.394 79.224C112.479 82.352 115.147 84.6827 118.398 86.216C121.649 87.688 125.114 88.7613 128.794 89.436C125.114 90.1107 121.649 91.2147 118.398 92.748C115.147 94.2813 112.479 96.612 110.394 99.74C108.37 102.807 107.358 107.1 107.358 112.62C107.358 117.159 107.266 120.747 107.082 123.384C106.898 126.021 106.561 127.984 106.07 129.272C105.641 130.621 104.997 131.48 104.138 131.848C103.279 132.277 102.206 132.492 100.918 132.492V134.24C106.499 134.24 110.977 133.596 114.35 132.308C117.723 131.081 120.146 128.904 121.618 125.776C123.151 122.648 123.918 118.263 123.918 112.62C123.918 106.855 124.102 102.408 124.47 99.28C124.899 96.0907 125.605 93.8213 126.586 92.472C127.567 91.1227 129.009 90.3867 130.91 90.264H131.37V88.608H130.91C129.009 88.4853 127.567 87.78 126.586 86.492C125.605 85.1427 124.899 82.8733 124.47 79.684C124.102 76.4947 123.918 72.0173 123.918 66.252C123.918 60.8547 123.151 56.6227 121.618 53.556C120.146 50.428 117.723 48.22 114.35 46.932C110.977 45.644 106.499 45 100.918 45Z" fill="white"/>
<defs>
<radialGradient id="paint0_radial" cx="0" cy="0" r="1" gradientUnits="userSpaceOnUse" gradientTransform="translate(90) rotate(90) scale(180)">
<stop stop-color="#461BF3"/>
<stop offset="1" stop-color="#1B31F3"/>
</radialGradient>
</defs>
</svg>
