<svg width="491" height="131" viewBox="0 0 491 131" fill="none" xmlns="http://www.w3.org/2000/svg">
<path d="M148.748 15.416C145.249 15.6346 142.68 16.072 141.04 16.728C139.509 17.384 138.471 18.6413 137.924 20.5C137.377 22.3586 137.104 25.3653 137.104 29.52V110.864C137.104 115.019 137.377 118.025 137.924 119.884C138.58 121.743 139.673 123 141.204 123.656C142.735 124.312 145.249 124.749 148.748 124.968V128.248C142.079 127.92 132.403 127.756 119.72 127.756C106.491 127.756 96.76 127.92 90.528 128.248V124.968C94.464 124.749 97.3067 124.312 99.056 123.656C100.915 123 102.172 121.743 102.828 119.884C103.484 118.025 103.812 115.019 103.812 110.864V27.06L64.288 128.084H61.664L15.416 22.796V96.104C15.416 104.195 15.744 110.044 16.4 113.652C17.056 117.151 18.4773 119.72 20.664 121.36C22.96 123 26.732 124.203 31.98 124.968V128.248C27.4973 127.92 21.3747 127.756 13.612 127.756C7.81733 127.756 3.28 127.92 0 128.248V124.968C3.38933 124.203 5.904 123.055 7.544 121.524C9.184 119.884 10.2773 117.424 10.824 114.144C11.3707 110.864 11.644 105.944 11.644 99.384V29.52C11.644 25.3653 11.316 22.3586 10.66 20.5C10.1133 18.6413 9.07467 17.384 7.544 16.728C6.01333 16.072 3.49867 15.6346 0 15.416V12.136C3.28 12.464 7.81733 12.628 13.612 12.628C26.732 12.628 38.048 12.464 47.56 12.136L78.556 81.836L105.452 12.628H119.72C132.403 12.628 142.079 12.464 148.748 12.136V15.416Z" fill="white"/>
<path d="M176.957 129.396C169.96 129.396 164.657 127.537 161.049 123.82C157.551 119.993 155.801 115.237 155.801 109.552C155.801 104.632 157.059 100.587 159.573 97.416C162.197 94.136 165.259 91.6213 168.757 89.872C172.256 88.1226 176.793 86.3186 182.369 84.46C188.273 82.492 192.592 80.688 195.325 79.048C198.059 77.408 199.425 75.112 199.425 72.16V57.564C199.425 54.0653 198.551 50.9493 196.801 48.216C195.052 45.4826 192.045 44.116 187.781 44.116C184.392 44.116 181.331 45.0453 178.597 46.904C182.315 48.216 185.048 50.184 186.797 52.808C188.656 55.3227 189.585 58.1653 189.585 61.336C189.585 65.6 188.055 69.044 184.993 71.668C182.041 74.1827 178.433 75.44 174.169 75.44C169.905 75.44 166.516 74.128 164.001 71.504C161.596 68.7706 160.393 65.3266 160.393 61.172C160.393 57.892 161.213 55.0493 162.853 52.644C164.493 50.2387 167.063 48.052 170.561 46.084C176.684 42.5853 185.431 40.836 196.801 40.836C202.815 40.836 208.008 41.4373 212.381 42.64C216.755 43.7333 220.472 45.8653 223.533 49.036C225.72 51.332 227.141 54.2293 227.797 57.728C228.563 61.1173 228.945 65.8733 228.945 71.996V115.948C228.945 118.681 229.109 120.54 229.437 121.524C229.875 122.508 230.585 123 231.569 123C232.335 123 233.155 122.781 234.029 122.344C234.904 121.797 235.724 121.196 236.489 120.54L238.129 123.328C233.428 127.373 226.704 129.396 217.957 129.396C211.397 129.396 206.805 128.303 204.181 126.116C201.557 123.82 200.136 120.759 199.917 116.932C194.779 125.241 187.125 129.396 176.957 129.396ZM193.357 116.276C195.653 116.276 197.676 115.347 199.425 113.488V78.884C198.441 80.524 196.637 82.656 194.013 85.28C191.061 88.1227 188.82 90.9106 187.289 93.644C185.759 96.268 184.993 99.876 184.993 104.468C184.993 112.34 187.781 116.276 193.357 116.276Z" fill="white"/>
<path d="M280.646 43.132H296.718V46.412H280.646V114.472C280.646 116.659 281.029 118.189 281.794 119.064C282.56 119.939 283.817 120.376 285.566 120.376C286.878 120.376 288.354 119.993 289.994 119.228C291.634 118.463 293.11 117.26 294.422 115.62L296.882 117.588C291.853 126.225 284.09 130.544 273.594 130.544C266.05 130.544 260.42 128.685 256.702 124.968C254.406 122.672 252.876 119.829 252.11 116.44C251.454 113.051 251.126 108.295 251.126 102.172V46.412H238.662V43.132H251.126V23.78C257.03 23.78 262.333 23.2333 267.034 22.14C271.845 20.9373 276.382 19.0786 280.646 16.564V43.132Z" fill="white"/>
<path d="M334.779 43.132H350.851V46.412H334.779V114.472C334.779 116.659 335.162 118.189 335.927 119.064C336.692 119.939 337.95 120.376 339.699 120.376C341.011 120.376 342.487 119.993 344.127 119.228C345.767 118.463 347.243 117.26 348.555 115.62L351.015 117.588C345.986 126.225 338.223 130.544 327.727 130.544C320.183 130.544 314.552 128.685 310.835 124.968C308.539 122.672 307.008 119.829 306.243 116.44C305.587 113.051 305.259 108.295 305.259 102.172V46.412H292.795V43.132H305.259V23.78C311.163 23.78 316.466 23.2333 321.167 22.14C325.978 20.9373 330.515 19.0786 334.779 16.564V43.132Z" fill="white"/>
<path d="M392.935 112.996C392.935 117.479 393.591 120.595 394.903 122.344C396.324 123.984 398.73 124.804 402.119 124.804V128.248C390.311 127.811 382.548 127.592 378.831 127.592C375.114 127.592 366.914 127.811 354.231 128.248V124.804C357.62 124.804 359.971 123.984 361.283 122.344C362.704 120.595 363.415 117.479 363.415 112.996V61.008C363.415 55.9786 362.704 52.316 361.283 50.02C359.971 47.724 357.62 46.576 354.231 46.576V43.132C357.73 43.46 361.119 43.624 364.399 43.624C375.77 43.624 385.282 42.8586 392.935 41.328V112.996Z" fill="white"/>
<path d="M429.684 129.396C422.687 129.396 417.384 127.537 413.776 123.82C410.277 119.993 408.528 115.237 408.528 109.552C408.528 104.632 409.785 100.587 412.3 97.416C414.924 94.136 417.985 91.6213 421.484 89.872C424.982 88.1226 429.52 86.3186 435.096 84.46C441 82.492 445.318 80.688 448.052 79.048C450.785 77.408 452.152 75.112 452.152 72.16V57.564C452.152 54.0653 451.277 50.9493 449.528 48.216C447.778 45.4826 444.772 44.116 440.508 44.116C437.119 44.116 434.057 45.0453 431.324 46.904C435.041 48.216 437.775 50.184 439.524 52.808C441.383 55.3227 442.312 58.1653 442.312 61.336C442.312 65.6 440.781 69.044 437.72 71.668C434.768 74.1827 431.16 75.44 426.896 75.44C422.632 75.44 419.243 74.128 416.728 71.504C414.323 68.7706 413.12 65.3266 413.12 61.172C413.12 57.892 413.94 55.0493 415.58 52.644C417.22 50.2387 419.789 48.052 423.288 46.084C429.411 42.5853 438.157 40.836 449.528 40.836C455.541 40.836 460.734 41.4373 465.108 42.64C469.481 43.7333 473.198 45.8653 476.26 49.036C478.446 51.332 479.868 54.2293 480.524 57.728C481.289 61.1173 481.672 65.8733 481.672 71.996V115.948C481.672 118.681 481.836 120.54 482.164 121.524C482.601 122.508 483.312 123 484.296 123C485.061 123 485.881 122.781 486.756 122.344C487.63 121.797 488.45 121.196 489.216 120.54L490.856 123.328C486.155 127.373 479.431 129.396 470.684 129.396C464.124 129.396 459.532 128.303 456.908 126.116C454.284 123.82 452.862 120.759 452.644 116.932C447.505 125.241 439.852 129.396 429.684 129.396ZM446.084 116.276C448.38 116.276 450.402 115.347 452.152 113.488V78.884C451.168 80.524 449.364 82.656 446.74 85.28C443.788 88.1227 441.547 90.9106 440.016 93.644C438.485 96.268 437.72 99.876 437.72 104.468C437.72 112.34 440.508 116.276 446.084 116.276Z" fill="white"/>
<path d="M390.31 3.608C387.249 1.20267 382.876 0 377.19 0C371.396 0 366.968 1.20267 363.906 3.608C360.845 6.01334 359.314 9.512 359.314 14.104C359.314 18.696 360.845 22.1947 363.906 24.6C366.968 27.0053 371.396 28.208 377.19 28.208C382.876 28.208 387.249 27.0053 390.31 24.6C393.481 22.1947 395.066 18.696 395.066 14.104C395.066 9.512 393.481 6.01334 390.31 3.608Z" fill="#54FFDA"/>
</svg>
